<svg xmlns="http://www.w3.org/2000/svg" width="27.287" height="16.752" viewBox="0 0 27.287 16.752">
  <path id="about" d="M64.744,0H60.157a.648.648,0,0,0-.648.648v.8a.648.648,0,0,0,.648.648h2.059l-5.5,5.5H52.377a1.047,1.047,0,0,0-.772.339l-6.167,6.728H39.152a.648.648,0,0,0-.648.648v.8a.648.648,0,0,0,.648.648H45.9a1.047,1.047,0,0,0,.772-.339l6.167-6.728h4.316a1.047,1.047,0,0,0,.74-.307l5.8-5.8V5.634a.648.648,0,0,0,.648.648h.8a.648.648,0,0,0,.648-.648V1.047A1.047,1.047,0,0,0,64.744,0Z" transform="translate(-38.504)" fill="#fff"/>
</svg>
