<svg id="icon2" xmlns="http://www.w3.org/2000/svg" xmlns:xlink="http://www.w3.org/1999/xlink" width="52.921" height="60.761" viewBox="0 0 52.921 60.761">
  <defs>
    <linearGradient id="linear-gradient" x1="0.5" x2="0.5" y2="1" gradientUnits="objectBoundingBox">
      <stop offset="0" stop-color="#9f78ff"/>
      <stop offset="1" stop-color="#f067ff"/>
    </linearGradient>
  </defs>
  <path id="Path_375" data-name="Path 375" d="M31.92,35.92A3.924,3.924,0,0,0,35.84,32H33.88a1.96,1.96,0,0,1-3.92,0H28A3.924,3.924,0,0,0,31.92,35.92Z" transform="translate(-5.46 -1.62)" fill="url(#linear-gradient)"/>
  <path id="Path_378" data-name="Path 378" d="M52.641,49.1A21.443,21.443,0,0,0,50.2,34.449,16.223,16.223,0,0,1,48.121,26.4V17.66a16.66,16.66,0,0,0-33.321,0v8.746a16.553,16.553,0,0,1-2.127,8.129A21.5,21.5,0,0,0,9.911,45.795,21.141,21.141,0,0,0,10.3,49.08,15.508,15.508,0,0,0,5,60.781v.98H57.921v-.98A15.51,15.51,0,0,0,52.641,49.1ZM11.87,45.734A19.532,19.532,0,0,1,14.38,35.5a18.525,18.525,0,0,0,2.38-9.095V17.66a14.7,14.7,0,0,1,29.4,0V26.4A18.188,18.188,0,0,0,48.5,35.421a19.419,19.419,0,0,1,2.377,12.333,15.7,15.7,0,0,0-2.632-1.392L38.187,42.25a2.93,2.93,0,0,1-1.827-2.722v-.7A18.144,18.144,0,0,0,44.2,23.883V20.447a8.776,8.776,0,0,0-3.31-6.888l-2.9-2.323-.542,1.084A6.079,6.079,0,0,1,31.978,15.7H23.62a4.906,4.906,0,0,0-4.9,4.9v3.284a18.146,18.146,0,0,0,7.84,14.941v.7a2.928,2.928,0,0,1-1.827,2.721L14.68,46.363a15.7,15.7,0,0,0-2.623,1.387,18.752,18.752,0,0,1-.186-2.016ZM39.3,19.62H35.38a2.936,2.936,0,0,0-2.76,1.96H30.3a2.936,2.936,0,0,0-2.76-1.96h-3.92a2.944,2.944,0,0,0-2.94,2.94V20.6a2.944,2.944,0,0,1,2.94-2.94h8.358a8.02,8.02,0,0,0,6.608-3.433l1.081.864a6.827,6.827,0,0,1,2.575,5.357V22.56A2.944,2.944,0,0,0,39.3,19.62Zm.98,2.94v.98a1.962,1.962,0,0,1-1.96,1.96H36.36a1.962,1.962,0,0,1-1.96-1.96v-.98a.981.981,0,0,1,.98-.98H39.3A.981.981,0,0,1,40.281,22.56Zm-11.76,0v.98a1.962,1.962,0,0,1-1.96,1.96H24.6a1.962,1.962,0,0,1-1.96-1.96v-.98a.981.981,0,0,1,.98-.98h3.92A.981.981,0,0,1,28.52,22.56Zm-3.92,4.9h1.96a3.924,3.924,0,0,0,3.92-3.92h1.96a3.924,3.924,0,0,0,3.92,3.92h1.96a3.924,3.924,0,0,0,3.92-3.92v.344a16.2,16.2,0,0,1-10.78,15.28,16.2,16.2,0,0,1-10.78-15.28V23.54A3.924,3.924,0,0,0,24.6,27.46Zm6.55,13.669.31.1.31-.1A18.316,18.316,0,0,0,34.435,40,4.864,4.864,0,0,0,35.6,42.734l-4.137,3.1-4.138-3.1A4.864,4.864,0,0,0,28.485,40a18.22,18.22,0,0,0,2.666,1.129Zm-5.674,2.934c.074-.03.141-.073.214-.107l4.358,3.268-3.241,3.889L23.9,44.71ZM31.46,48.59l.321.385L33.275,59.8H29.644l1.495-10.825Zm1.413-1.364,4.358-3.268c.073.034.139.076.214.107l1.58.646-2.911,6.4Zm-17.452.952,6.659-2.724,4.233,9.314,2.454-2.945-1.1,7.978H16.76v-5.88H14.8V59.8H6.994a13.563,13.563,0,0,1,8.427-11.623ZM48.121,59.8v-5.88h-1.96V59.8H35.255l-1.1-7.978,2.454,2.945,4.234-9.314L47.5,48.178A13.564,13.564,0,0,1,55.927,59.8Z" transform="translate(-5 -1)" fill="url(#linear-gradient)"/>
</svg>
