<svg id="icon3" xmlns="http://www.w3.org/2000/svg" xmlns:xlink="http://www.w3.org/1999/xlink" width="60.736" height="60.761" viewBox="0 0 60.736 60.761">
  <defs>
    <linearGradient id="linear-gradient" x1="0.5" x2="0.5" y2="1" gradientUnits="objectBoundingBox">
      <stop offset="0" stop-color="#9f78ff"/>
      <stop offset="1" stop-color="#f067ff"/>
    </linearGradient>
  </defs>
  <g id="Group_377" data-name="Group 377" transform="translate(0 0)">
    <g id="Group_376" data-name="Group 376" transform="translate(0 0)">
      <path id="Path_379" data-name="Path 379" d="M58.178,2.668a9.147,9.147,0,0,0-12.89,0A1.015,1.015,0,0,0,45.068,3a.986.986,0,0,0-.07.349c0,.011-.005.023-.007.034a1.011,1.011,0,0,0,.077.386.985.985,0,0,0,.22.331L50.3,9.116l-1.939,1.938A26.3,26.3,0,0,0,30.521,4.068a.17.17,0,0,0-.048-.014c-.017,0-.03.009-.048.009a26.291,26.291,0,0,0-17.842,6.992L10.644,9.116,15.659,4.1a.986.986,0,0,0,.22-.331,1.011,1.011,0,0,0,.077-.386c0-.012-.006-.022-.007-.034a.891.891,0,0,0-.253-.626c-.015-.017-.02-.038-.036-.055A9.116,9.116,0,1,0,2.766,15.561c.014.015.034.019.05.033a.993.993,0,0,0,.281.186,1.012,1.012,0,0,0,.346.07c.012,0,.024.007.037.007a1.034,1.034,0,0,0,.385-.076,1.012,1.012,0,0,0,.331-.221l5.016-5.013,1.939,1.939A26.322,26.322,0,0,0,15.5,52.012L8.5,59.02A1.012,1.012,0,0,0,9.9,60.476l.025-.025,7.327-7.327a26.23,26.23,0,0,0,26.436,0l7.327,7.327a1.012,1.012,0,0,0,1.432-1.432l-7.009-7.008a26.329,26.329,0,0,0,4.353-39.526l1.941-1.939,5.014,5.014a1.012,1.012,0,0,0,.331.221,1.034,1.034,0,0,0,.385.076c.013,0,.025-.007.037-.007a1.012,1.012,0,0,0,.346-.07.992.992,0,0,0,.281-.186c.015-.014.035-.018.05-.033A9.156,9.156,0,0,0,58.178,2.668ZM3.535,13.362a7.092,7.092,0,0,1,9.921-9.921Zm51.192,16H49.709a1.012,1.012,0,0,0,0,2.025h5.037a24.325,24.325,0,0,1-23.26,23.26V49.612a1.012,1.012,0,1,0-2.025,0v5.037A24.325,24.325,0,0,1,6.2,31.389h5.037a1.012,1.012,0,1,0,0-2.025H6.219a24.18,24.18,0,0,1,7.019-16.137c.016-.014.036-.019.052-.034s.02-.035.034-.052A24.163,24.163,0,0,1,29.461,6.122v5.018a1.012,1.012,0,0,0,2.025,0V6.122a24.162,24.162,0,0,1,16.137,7.019c.014.016.019.036.034.052s.035.02.052.034A24.182,24.182,0,0,1,54.727,29.364Zm2.682-16L47.487,3.439a7.087,7.087,0,0,1,9.921,9.921Z" transform="translate(-0.096 0)" fill="url(#linear-gradient)"/>
      <path id="Path_380" data-name="Path 380" d="M180.926,164.2h0l-11.515,6.647a4.031,4.031,0,0,0-5.7-.07l-.07.07-6.254-3.61a1.012,1.012,0,1,0-1.024,1.747l.012.007,6.264,3.616a4.05,4.05,0,1,0,7.773,0l11.525-6.653a1.012,1.012,0,0,0-1.013-1.753Zm-14.4,11.507a2.025,2.025,0,1,1,2.025-2.025A2.025,2.025,0,0,1,166.529,175.7Z" transform="translate(-136.152 -143.301)" fill="url(#linear-gradient)"/>
    </g>
  </g>
</svg>
