<svg xmlns="http://www.w3.org/2000/svg" width="43.291" height="43.291" viewBox="0 0 43.291 43.291">
  <g id="loder" transform="translate(0)">
    <path id="Path_3" data-name="Path 3" d="M21.561,266.452a1.268,1.268,0,0,1-.87,1.151L13.1,270.108,10.592,277.7a1.268,1.268,0,0,1-2.371.1L.1,258.78a1.269,1.269,0,0,1,1.664-1.664l19.023,8.116A1.269,1.269,0,0,1,21.561,266.452Z" transform="translate(21.729 -235.282)" fill="#fff"/>
    <path id="Path_4" data-name="Path 4" d="M110.443,121.4a10.906,10.906,0,1,1,10.906-10.906,1.268,1.268,0,1,0,2.536,0,13.443,13.443,0,1,0-13.443,13.443,1.268,1.268,0,0,0,0-2.536Z" transform="translate(-88.795 -88.845)" fill="#fff"/>
    <path id="Path_5" data-name="Path 5" d="M21.648,40.754A19.107,19.107,0,1,1,40.755,21.647a1.268,1.268,0,1,0,2.536,0A21.644,21.644,0,0,0,6.361,6.361a21.644,21.644,0,0,0,15.287,36.93,1.268,1.268,0,1,0,0-2.536Z" transform="translate(0 0.001)" fill="#fff"/>
  </g>
</svg>
